<svg width="21" height="22" viewBox="0 0 21 22" fill="none" xmlns="http://www.w3.org/2000/svg">
<g id="Comment">
<g id="Icon">
<path d="M10.5027 16.9578C10.8885 16.9578 11.2318 16.6518 11.2318 16.2568V11.7197H15.7343C16.1224 11.7197 16.4578 11.3955 16.4578 11.0027C16.4578 10.6033 16.1211 10.2856 15.7343 10.2856H11.2318V5.74319C11.2318 5.34816 10.8885 5.04219 10.5027 5.04219C10.1102 5.04219 9.7737 5.3494 9.7737 5.74319V10.2856H5.27122C4.8869 10.2856 4.54219 10.6008 4.54219 11.0027C4.54219 11.398 4.88561 11.7197 5.27122 11.7197H9.7737V16.2568C9.7737 16.6506 10.1102 16.9578 10.5027 16.9578Z" fill="#2C2669"/>
<path d="M10.5027 16.9578C10.8885 16.9578 11.2318 16.6518 11.2318 16.2568V11.7197H15.7343C16.1224 11.7197 16.4578 11.3955 16.4578 11.0027C16.4578 10.6033 16.1211 10.2856 15.7343 10.2856H11.2318V5.74319C11.2318 5.34816 10.8885 5.04219 10.5027 5.04219C10.1102 5.04219 9.7737 5.3494 9.7737 5.74319V10.2856H5.27122C4.8869 10.2856 4.54219 10.6008 4.54219 11.0027C4.54219 11.398 4.88561 11.7197 5.27122 11.7197H9.7737V16.2568C9.7737 16.6506 10.1102 16.9578 10.5027 16.9578Z" fill="black" fill-opacity="0.2"/>
<path d="M10.5027 16.9578C10.8885 16.9578 11.2318 16.6518 11.2318 16.2568V11.7197H15.7343C16.1224 11.7197 16.4578 11.3955 16.4578 11.0027C16.4578 10.6033 16.1211 10.2856 15.7343 10.2856H11.2318V5.74319C11.2318 5.34816 10.8885 5.04219 10.5027 5.04219C10.1102 5.04219 9.7737 5.3494 9.7737 5.74319V10.2856H5.27122C4.8869 10.2856 4.54219 10.6008 4.54219 11.0027C4.54219 11.398 4.88561 11.7197 5.27122 11.7197H9.7737V16.2568C9.7737 16.6506 10.1102 16.9578 10.5027 16.9578Z" stroke="#2C2669" stroke-width="0.384375"/>
<path d="M10.5027 16.9578C10.8885 16.9578 11.2318 16.6518 11.2318 16.2568V11.7197H15.7343C16.1224 11.7197 16.4578 11.3955 16.4578 11.0027C16.4578 10.6033 16.1211 10.2856 15.7343 10.2856H11.2318V5.74319C11.2318 5.34816 10.8885 5.04219 10.5027 5.04219C10.1102 5.04219 9.7737 5.3494 9.7737 5.74319V10.2856H5.27122C4.8869 10.2856 4.54219 10.6008 4.54219 11.0027C4.54219 11.398 4.88561 11.7197 5.27122 11.7197H9.7737V16.2568C9.7737 16.6506 10.1102 16.9578 10.5027 16.9578Z" stroke="black" stroke-opacity="0.2" stroke-width="0.384375"/>
</g>
</g>
</svg>
