<svg width="10" height="10" viewBox="0 0 10 10" fill="none" xmlns="http://www.w3.org/2000/svg">
<g id="calendar4-frame">
<g id="calendar4">
<path fill-rule="evenodd" clip-rule="evenodd" d="M2.1875 0C2.36009 0 2.5 0.139911 2.5 0.3125V0.625H7.5V0.3125C7.5 0.139911 7.63991 0 7.8125 0C7.98509 0 8.125 0.139911 8.125 0.3125V0.625H8.75C9.44036 0.625 10 1.18464 10 1.875V8.75C10 9.44036 9.44036 10 8.75 10H1.25C0.559644 10 0 9.44036 0 8.75V1.875C0 1.18464 0.559644 0.625 1.25 0.625H1.875V0.3125C1.875 0.139911 2.01491 0 2.1875 0ZM1.25 1.25C0.904822 1.25 0.625 1.52982 0.625 1.875V2.5H9.375V1.875C9.375 1.52982 9.09518 1.25 8.75 1.25H1.25ZM9.375 3.125H0.625V8.75C0.625 9.09518 0.904822 9.375 1.25 9.375H8.75C9.09518 9.375 9.375 9.09518 9.375 8.75V3.125Z" fill="#2C2669"/>
<path fill-rule="evenodd" clip-rule="evenodd" d="M2.1875 0C2.36009 0 2.5 0.139911 2.5 0.3125V0.625H7.5V0.3125C7.5 0.139911 7.63991 0 7.8125 0C7.98509 0 8.125 0.139911 8.125 0.3125V0.625H8.75C9.44036 0.625 10 1.18464 10 1.875V8.75C10 9.44036 9.44036 10 8.75 10H1.25C0.559644 10 0 9.44036 0 8.75V1.875C0 1.18464 0.559644 0.625 1.25 0.625H1.875V0.3125C1.875 0.139911 2.01491 0 2.1875 0ZM1.25 1.25C0.904822 1.25 0.625 1.52982 0.625 1.875V2.5H9.375V1.875C9.375 1.52982 9.09518 1.25 8.75 1.25H1.25ZM9.375 3.125H0.625V8.75C0.625 9.09518 0.904822 9.375 1.25 9.375H8.75C9.09518 9.375 9.375 9.09518 9.375 8.75V3.125Z" fill="black" fill-opacity="0.2"/>
</g>
</g>
</svg>
