<svg width="20" height="20" viewBox="0 0 20 20" fill="none" xmlns="http://www.w3.org/2000/svg">
<path fill-rule="evenodd" clip-rule="evenodd" d="M4.375 0C4.72018 0 5 0.279822 5 0.625V1.25H15V0.625C15 0.279822 15.2798 0 15.625 0C15.9702 0 16.25 0.279822 16.25 0.625V1.25H17.5C18.8807 1.25 20 2.36929 20 3.75V17.5C20 18.8807 18.8807 20 17.5 20H2.5C1.11929 20 0 18.8807 0 17.5V3.75C0 2.36929 1.11929 1.25 2.5 1.25H3.75V0.625C3.75 0.279822 4.02982 0 4.375 0ZM2.5 2.5C1.80964 2.5 1.25 3.05964 1.25 3.75V5H18.75V3.75C18.75 3.05964 18.1904 2.5 17.5 2.5H2.5ZM18.75 6.25H1.25V17.5C1.25 18.1904 1.80964 18.75 2.5 18.75H17.5C18.1904 18.75 18.75 18.1904 18.75 17.5V6.25Z" fill="#2C2669"/>
<path fill-rule="evenodd" clip-rule="evenodd" d="M4.375 0C4.72018 0 5 0.279822 5 0.625V1.25H15V0.625C15 0.279822 15.2798 0 15.625 0C15.9702 0 16.25 0.279822 16.25 0.625V1.25H17.5C18.8807 1.25 20 2.36929 20 3.75V17.5C20 18.8807 18.8807 20 17.5 20H2.5C1.11929 20 0 18.8807 0 17.5V3.75C0 2.36929 1.11929 1.25 2.5 1.25H3.75V0.625C3.75 0.279822 4.02982 0 4.375 0ZM2.5 2.5C1.80964 2.5 1.25 3.05964 1.25 3.75V5H18.75V3.75C18.75 3.05964 18.1904 2.5 17.5 2.5H2.5ZM18.75 6.25H1.25V17.5C1.25 18.1904 1.80964 18.75 2.5 18.75H17.5C18.1904 18.75 18.75 18.1904 18.75 17.5V6.25Z" fill="black" fill-opacity="0.2"/>
<path d="M13.75 9.375C13.75 9.02982 14.0298 8.75 14.375 8.75H15.625C15.9702 8.75 16.25 9.02982 16.25 9.375V10.625C16.25 10.9702 15.9702 11.25 15.625 11.25H14.375C14.0298 11.25 13.75 10.9702 13.75 10.625V9.375Z" fill="#2C2669"/>
<path d="M13.75 9.375C13.75 9.02982 14.0298 8.75 14.375 8.75H15.625C15.9702 8.75 16.25 9.02982 16.25 9.375V10.625C16.25 10.9702 15.9702 11.25 15.625 11.25H14.375C14.0298 11.25 13.75 10.9702 13.75 10.625V9.375Z" fill="black" fill-opacity="0.2"/>
<path d="M10 9.375C10 9.02982 10.2798 8.75 10.625 8.75H11.875C12.2202 8.75 12.5 9.02982 12.5 9.375V10.625C12.5 10.9702 12.2202 11.25 11.875 11.25H10.625C10.2798 11.25 10 10.9702 10 10.625V9.375Z" fill="#2C2669"/>
<path d="M10 9.375C10 9.02982 10.2798 8.75 10.625 8.75H11.875C12.2202 8.75 12.5 9.02982 12.5 9.375V10.625C12.5 10.9702 12.2202 11.25 11.875 11.25H10.625C10.2798 11.25 10 10.9702 10 10.625V9.375Z" fill="black" fill-opacity="0.2"/>
<path d="M7.5 13.125C7.5 12.7798 7.77982 12.5 8.125 12.5H9.375C9.72018 12.5 10 12.7798 10 13.125V14.375C10 14.7202 9.72018 15 9.375 15H8.125C7.77982 15 7.5 14.7202 7.5 14.375V13.125Z" fill="#2C2669"/>
<path d="M7.5 13.125C7.5 12.7798 7.77982 12.5 8.125 12.5H9.375C9.72018 12.5 10 12.7798 10 13.125V14.375C10 14.7202 9.72018 15 9.375 15H8.125C7.77982 15 7.5 14.7202 7.5 14.375V13.125Z" fill="black" fill-opacity="0.2"/>
<path d="M3.75 13.125C3.75 12.7798 4.02982 12.5 4.375 12.5H5.625C5.97018 12.5 6.25 12.7798 6.25 13.125V14.375C6.25 14.7202 5.97018 15 5.625 15H4.375C4.02982 15 3.75 14.7202 3.75 14.375V13.125Z" fill="#2C2669"/>
<path d="M3.75 13.125C3.75 12.7798 4.02982 12.5 4.375 12.5H5.625C5.97018 12.5 6.25 12.7798 6.25 13.125V14.375C6.25 14.7202 5.97018 15 5.625 15H4.375C4.02982 15 3.75 14.7202 3.75 14.375V13.125Z" fill="black" fill-opacity="0.2"/>
</svg>
