<svg width="14" height="14" viewBox="0 0 14 14" fill="none" xmlns="http://www.w3.org/2000/svg">
<circle cx="7" cy="7" r="6.5" fill="white"/>
<circle cx="7" cy="7" r="6.5" stroke="#2C2669"/>
<circle cx="7" cy="7" r="6.5" stroke="black" stroke-opacity="0.2"/>
<mask id="mask0_0_6028" style="mask-type:alpha" maskUnits="userSpaceOnUse" x="3" y="3" width="8" height="8">
<path fill-rule="evenodd" clip-rule="evenodd" d="M8.81408 3.56407C8.8995 3.47864 9.03801 3.47864 9.12344 3.56407L10.4359 4.87657C10.5214 4.962 10.5214 5.1005 10.4359 5.18593L6.06094 9.56093C6.03999 9.58188 6.015 9.59835 5.9875 9.60935L3.8 10.4844C3.71875 10.5169 3.62595 10.4978 3.56408 10.4359C3.5022 10.3741 3.48315 10.2813 3.51565 10.2L4.39065 8.01251C4.40165 7.985 4.41813 7.96002 4.43908 7.93907L8.81408 3.56407ZM8.40312 4.59375L9.40626 5.59689L9.9719 5.03125L8.96876 4.02811L8.40312 4.59375ZM9.0969 5.90625L8.09376 4.90311L5.25001 7.74686V7.875H5.46876C5.58957 7.875 5.68751 7.97294 5.68751 8.09375V8.3125H5.90626C6.02707 8.3125 6.12501 8.41044 6.12501 8.53125V8.75H6.25315L9.0969 5.90625ZM4.82635 8.17051L4.78019 8.21668L4.11142 9.88858L5.78333 9.21982L5.82949 9.17365C5.74655 9.14256 5.68751 9.06255 5.68751 8.96875V8.75H5.46876C5.34794 8.75 5.25001 8.65206 5.25001 8.53125V8.3125H5.03126C4.93745 8.3125 4.85744 8.25346 4.82635 8.17051Z" fill="black"/>
</mask>
<g mask="url(#mask0_0_6028)">
<rect x="3.5" y="3.5" width="7" height="7" fill="#2C2669"/>
<rect x="3.5" y="3.5" width="7" height="7" fill="black" fill-opacity="0.2"/>
</g>
</svg>
