<svg width="20" height="20" viewBox="0 0 20 20" fill="none" xmlns="http://www.w3.org/2000/svg">
<g id="Non-categorized">
<g id="Vector (Stroke)">
<path fill-rule="evenodd" clip-rule="evenodd" d="M6.66203 3.54105L6.66671 3.54102C7.25057 3.54103 7.7955 3.80834 8.16811 4.25642L11.8065 8.63482C12.1203 9.02036 12.2916 9.50228 12.2916 9.99937C12.2916 10.4965 12.1202 10.9784 11.8065 11.3639L11.8024 11.3688L8.17006 15.74C7.98873 15.9619 7.76078 16.1413 7.50238 16.2653C7.24293 16.3898 6.95918 16.4555 6.6714 16.4577L6.66671 16.4577C6.08286 16.4577 5.53793 16.1904 5.16532 15.7423L1.52694 11.3639C1.21316 10.9784 1.04187 10.4965 1.04187 9.99937C1.04187 9.50228 1.21319 9.02038 1.52697 8.63484L1.53099 8.6299L5.16336 4.25878C5.34469 4.03683 5.57264 3.85747 5.83105 3.73344C6.0905 3.6089 6.37425 3.54321 6.66203 3.54105ZM6.66903 4.79104C6.56614 4.79215 6.46474 4.81581 6.37196 4.86034C6.27847 4.90522 6.19605 4.97019 6.13058 5.05061L6.1266 5.0555L2.49471 9.42604C2.36349 9.58828 2.29187 9.79065 2.29187 9.99937C2.29187 10.2081 2.36349 10.4105 2.49471 10.5727L6.12644 14.9431C6.12639 14.943 6.12648 14.9431 6.12644 14.9431C6.27158 15.1175 6.46906 15.207 6.66439 15.2077C6.76728 15.2066 6.86868 15.1829 6.96146 15.1384C7.05495 15.0935 7.13738 15.0285 7.20284 14.9481L7.20683 14.9432L10.8387 10.5727C10.9699 10.4105 11.0416 10.2081 11.0416 9.99937C11.0416 9.79065 10.9699 9.58827 10.8387 9.42604L7.20699 5.05564C7.20694 5.05559 7.20703 5.0557 7.20699 5.05564C7.06185 4.88119 6.86436 4.79174 6.66903 4.79104Z" fill="#2C2669"/>
<path fill-rule="evenodd" clip-rule="evenodd" d="M6.66203 3.54105L6.66671 3.54102C7.25057 3.54103 7.7955 3.80834 8.16811 4.25642L11.8065 8.63482C12.1203 9.02036 12.2916 9.50228 12.2916 9.99937C12.2916 10.4965 12.1202 10.9784 11.8065 11.3639L11.8024 11.3688L8.17006 15.74C7.98873 15.9619 7.76078 16.1413 7.50238 16.2653C7.24293 16.3898 6.95918 16.4555 6.6714 16.4577L6.66671 16.4577C6.08286 16.4577 5.53793 16.1904 5.16532 15.7423L1.52694 11.3639C1.21316 10.9784 1.04187 10.4965 1.04187 9.99937C1.04187 9.50228 1.21319 9.02038 1.52697 8.63484L1.53099 8.6299L5.16336 4.25878C5.34469 4.03683 5.57264 3.85747 5.83105 3.73344C6.0905 3.6089 6.37425 3.54321 6.66203 3.54105ZM6.66903 4.79104C6.56614 4.79215 6.46474 4.81581 6.37196 4.86034C6.27847 4.90522 6.19605 4.97019 6.13058 5.05061L6.1266 5.0555L2.49471 9.42604C2.36349 9.58828 2.29187 9.79065 2.29187 9.99937C2.29187 10.2081 2.36349 10.4105 2.49471 10.5727L6.12644 14.9431C6.12639 14.943 6.12648 14.9431 6.12644 14.9431C6.27158 15.1175 6.46906 15.207 6.66439 15.2077C6.76728 15.2066 6.86868 15.1829 6.96146 15.1384C7.05495 15.0935 7.13738 15.0285 7.20284 14.9481L7.20683 14.9432L10.8387 10.5727C10.9699 10.4105 11.0416 10.2081 11.0416 9.99937C11.0416 9.79065 10.9699 9.58827 10.8387 9.42604L7.20699 5.05564C7.20694 5.05559 7.20703 5.0557 7.20699 5.05564C7.06185 4.88119 6.86436 4.79174 6.66903 4.79104Z" fill="black" fill-opacity="0.2"/>
</g>
<g id="Vector (Stroke)_2">
<path fill-rule="evenodd" clip-rule="evenodd" d="M13.7805 3.67462C14.0519 3.46134 14.4448 3.50847 14.6581 3.77987L18.4767 8.63936C18.7882 9.02415 18.9582 9.50422 18.9582 9.99938C18.9582 10.4945 18.7882 10.9746 18.4767 11.3594L14.6581 16.2189C14.4448 16.4903 14.0519 16.5374 13.7805 16.3241C13.5091 16.1109 13.462 15.7179 13.6752 15.4465L17.5035 10.5748C17.6358 10.4122 17.7082 10.209 17.7082 9.99938C17.7082 9.78973 17.6359 9.5865 17.5036 9.4239L17.4968 9.4156L13.6752 4.55221C13.462 4.2808 13.5091 3.88789 13.7805 3.67462Z" fill="#2C2669"/>
<path fill-rule="evenodd" clip-rule="evenodd" d="M13.7805 3.67462C14.0519 3.46134 14.4448 3.50847 14.6581 3.77987L18.4767 8.63936C18.7882 9.02415 18.9582 9.50422 18.9582 9.99938C18.9582 10.4945 18.7882 10.9746 18.4767 11.3594L14.6581 16.2189C14.4448 16.4903 14.0519 16.5374 13.7805 16.3241C13.5091 16.1109 13.462 15.7179 13.6752 15.4465L17.5035 10.5748C17.6358 10.4122 17.7082 10.209 17.7082 9.99938C17.7082 9.78973 17.6359 9.5865 17.5036 9.4239L17.4968 9.4156L13.6752 4.55221C13.462 4.2808 13.5091 3.88789 13.7805 3.67462Z" fill="black" fill-opacity="0.2"/>
</g>
<g id="Vector (Stroke)_3">
<path fill-rule="evenodd" clip-rule="evenodd" d="M10.4471 3.67462C10.7185 3.46134 11.1114 3.50847 11.3247 3.77987L15.1434 8.63936C15.4548 9.02415 15.6248 9.50422 15.6248 9.99938C15.6248 10.4945 15.4548 10.9746 15.1433 11.3594L11.3247 16.2189C11.1114 16.4903 10.7185 16.5374 10.4471 16.3241C10.1757 16.1109 10.1286 15.7179 10.3419 15.4465L14.1701 10.5748C14.3025 10.4122 14.3748 10.209 14.3748 9.99938C14.3748 9.78973 14.3025 9.5865 14.1702 9.4239L14.1634 9.4156L10.3419 4.55221C10.1286 4.2808 10.1757 3.88789 10.4471 3.67462Z" fill="#2C2669"/>
<path fill-rule="evenodd" clip-rule="evenodd" d="M10.4471 3.67462C10.7185 3.46134 11.1114 3.50847 11.3247 3.77987L15.1434 8.63936C15.4548 9.02415 15.6248 9.50422 15.6248 9.99938C15.6248 10.4945 15.4548 10.9746 15.1433 11.3594L11.3247 16.2189C11.1114 16.4903 10.7185 16.5374 10.4471 16.3241C10.1757 16.1109 10.1286 15.7179 10.3419 15.4465L14.1701 10.5748C14.3025 10.4122 14.3748 10.209 14.3748 9.99938C14.3748 9.78973 14.3025 9.5865 14.1702 9.4239L14.1634 9.4156L10.3419 4.55221C10.1286 4.2808 10.1757 3.88789 10.4471 3.67462Z" fill="black" fill-opacity="0.2"/>
</g>
</g>
</svg>
