<svg width="20" height="20" viewBox="0 0 20 20" fill="none" xmlns="http://www.w3.org/2000/svg">
<g id="Non-categorized" clip-path="url(#clip0_47_1488)">
<g id="Vector">
<path d="M7.5 9.16602C7.5 9.82906 7.76339 10.4649 8.23223 10.9338C8.70107 11.4026 9.33696 11.666 10 11.666C10.663 11.666 11.2989 11.4026 11.7678 10.9338C12.2366 10.4649 12.5 9.82906 12.5 9.16602C12.5 8.50297 12.2366 7.86709 11.7678 7.39825C11.2989 6.92941 10.663 6.66602 10 6.66602C9.33696 6.66602 8.70107 6.92941 8.23223 7.39825C7.76339 7.86709 7.5 8.50297 7.5 9.16602Z" stroke="#2C2669" stroke-width="1.5" stroke-linecap="round" stroke-linejoin="round"/>
<path d="M7.5 9.16602C7.5 9.82906 7.76339 10.4649 8.23223 10.9338C8.70107 11.4026 9.33696 11.666 10 11.666C10.663 11.666 11.2989 11.4026 11.7678 10.9338C12.2366 10.4649 12.5 9.82906 12.5 9.16602C12.5 8.50297 12.2366 7.86709 11.7678 7.39825C11.2989 6.92941 10.663 6.66602 10 6.66602C9.33696 6.66602 8.70107 6.92941 8.23223 7.39825C7.76339 7.86709 7.5 8.50297 7.5 9.16602Z" stroke="black" stroke-opacity="0.2" stroke-width="1.5" stroke-linecap="round" stroke-linejoin="round"/>
</g>
<g id="Vector_2">
<path d="M10.6525 17.7714C10.3468 17.9013 10.0093 17.9369 9.6832 17.8736C9.35714 17.8104 9.05741 17.6511 8.82247 17.4164L5.2858 13.8805C4.5097 13.1044 3.93725 12.1486 3.61926 11.098C3.30128 10.0475 3.24761 8.93466 3.46301 7.85838C3.6784 6.78211 4.15621 5.77566 4.85401 4.92841C5.55181 4.08115 6.44801 3.41929 7.46305 3.0016C8.47808 2.5839 9.58055 2.42328 10.6726 2.53401C11.7646 2.64474 12.8124 3.02338 13.7229 3.63633C14.6334 4.24927 15.3785 5.07755 15.8921 6.04763C16.4056 7.01771 16.6717 8.09958 16.6666 9.19719" stroke="#2C2669" stroke-width="1.5" stroke-linecap="round" stroke-linejoin="round"/>
<path d="M10.6525 17.7714C10.3468 17.9013 10.0093 17.9369 9.6832 17.8736C9.35714 17.8104 9.05741 17.6511 8.82247 17.4164L5.2858 13.8805C4.5097 13.1044 3.93725 12.1486 3.61926 11.098C3.30128 10.0475 3.24761 8.93466 3.46301 7.85838C3.6784 6.78211 4.15621 5.77566 4.85401 4.92841C5.55181 4.08115 6.44801 3.41929 7.46305 3.0016C8.47808 2.5839 9.58055 2.42328 10.6726 2.53401C11.7646 2.64474 12.8124 3.02338 13.7229 3.63633C14.6334 4.24927 15.3785 5.07755 15.8921 6.04763C16.4056 7.01771 16.6717 8.09958 16.6666 9.19719" stroke="black" stroke-opacity="0.2" stroke-width="1.5" stroke-linecap="round" stroke-linejoin="round"/>
</g>
<g id="Vector_3">
<path d="M17.6009 16.768C17.9506 16.4184 18.1888 15.973 18.2853 15.488C18.3818 15.003 18.3323 14.5003 18.1431 14.0435C17.9539 13.5866 17.6335 13.1961 17.2224 12.9214C16.8112 12.6466 16.3279 12.5 15.8334 12.5C15.3389 12.5 14.8555 12.6466 14.4444 12.9214C14.0332 13.1961 13.7128 13.5866 13.5236 14.0435C13.3344 14.5003 13.2849 15.003 13.3815 15.488C13.478 15.973 13.7162 16.4184 14.0659 16.768C14.4142 17.1172 15.0034 17.6389 15.8334 18.3339C16.7092 17.5922 17.2992 17.0705 17.6009 16.768Z" stroke="#2C2669" stroke-width="1.5" stroke-linecap="round" stroke-linejoin="round"/>
<path d="M17.6009 16.768C17.9506 16.4184 18.1888 15.973 18.2853 15.488C18.3818 15.003 18.3323 14.5003 18.1431 14.0435C17.9539 13.5866 17.6335 13.1961 17.2224 12.9214C16.8112 12.6466 16.3279 12.5 15.8334 12.5C15.3389 12.5 14.8555 12.6466 14.4444 12.9214C14.0332 13.1961 13.7128 13.5866 13.5236 14.0435C13.3344 14.5003 13.2849 15.003 13.3815 15.488C13.478 15.973 13.7162 16.4184 14.0659 16.768C14.4142 17.1172 15.0034 17.6389 15.8334 18.3339C16.7092 17.5922 17.2992 17.0705 17.6009 16.768Z" stroke="black" stroke-opacity="0.2" stroke-width="1.5" stroke-linecap="round" stroke-linejoin="round"/>
</g>
<g id="Vector_4">
<path d="M15.8334 15V15.0083" stroke="#2C2669" stroke-width="1.5" stroke-linecap="round" stroke-linejoin="round"/>
<path d="M15.8334 15V15.0083" stroke="black" stroke-opacity="0.2" stroke-width="1.5" stroke-linecap="round" stroke-linejoin="round"/>
</g>
</g>
<defs>
<clipPath id="clip0_47_1488">
<rect width="20" height="20" fill="white"/>
</clipPath>
</defs>
</svg>
