<svg width="20" height="20" viewBox="0 0 20 20" fill="none" xmlns="http://www.w3.org/2000/svg">
<g id="More">
<path id="Oval 68" fill-rule="evenodd" clip-rule="evenodd" d="M10 5.83333C10.9205 5.83333 11.6667 5.08714 11.6667 4.16667C11.6667 3.24619 10.9205 2.5 10 2.5C9.07957 2.5 8.33337 3.24619 8.33337 4.16667C8.33337 5.08714 9.07957 5.83333 10 5.83333Z" fill="#BFBAE3"/>
<path id="Oval 67 Copy" fill-rule="evenodd" clip-rule="evenodd" d="M10 11.6663C10.9205 11.6663 11.6667 10.9201 11.6667 9.99967C11.6667 9.0792 10.9205 8.33301 10 8.33301C9.07957 8.33301 8.33337 9.0792 8.33337 9.99967C8.33337 10.9201 9.07957 11.6663 10 11.6663Z" fill="#BFBAE3"/>
<path id="Oval 67 Copy 3" fill-rule="evenodd" clip-rule="evenodd" d="M10 17.5003C10.9205 17.5003 11.6667 16.7541 11.6667 15.8337C11.6667 14.9132 10.9205 14.167 10 14.167C9.07957 14.167 8.33337 14.9132 8.33337 15.8337C8.33337 16.7541 9.07957 17.5003 10 17.5003Z" fill="#BFBAE3"/>
</g>
</svg>
