<svg width="16" height="16" viewBox="0 0 16 16" fill="none" xmlns="http://www.w3.org/2000/svg">
<g id="Comment">
<path id="Icon" d="M8.00214 12.65C8.30325 12.65 8.57114 12.4112 8.57114 12.1029V8.56175H12.0853C12.3882 8.56175 12.65 8.30867 12.65 8.00209C12.65 7.69035 12.3872 7.44243 12.0853 7.44243H8.57114V3.89712C8.57114 3.58881 8.30325 3.35 8.00214 3.35C7.69573 3.35 7.43314 3.58977 7.43314 3.89712V7.44243H3.919C3.61904 7.44243 3.35 7.6884 3.35 8.00209C3.35 8.31063 3.61804 8.56175 3.919 8.56175H7.43314V12.1029C7.43314 12.4102 7.69573 12.65 8.00214 12.65Z" fill="white" stroke="white" stroke-width="0.3"/>
</g>
</svg>
