<svg width="20" height="20" viewBox="0 0 20 20" fill="none" xmlns="http://www.w3.org/2000/svg">
<g id="Frame">
<path id="Vector" d="M10 3.33366C7.84127 3.33366 5.92174 4.3591 4.7023 5.95261L6.66669 7.91699H1.66669V2.91699L3.51554 4.76585C5.04219 2.87699 7.37967 1.66699 10 1.66699C14.6024 1.66699 18.3334 5.39795 18.3334 10.0003H16.6667C16.6667 6.31842 13.6819 3.33366 10 3.33366ZM3.33335 10.0003C3.33335 13.6822 6.31812 16.667 10 16.667C12.1588 16.667 14.0784 15.6416 15.2978 14.0481L13.3334 12.0837H18.3334V17.0837L16.4845 15.2348C14.9579 17.1237 12.6204 18.3337 10 18.3337C5.39764 18.3337 1.66669 14.6027 1.66669 10.0003H3.33335Z" fill="#BFBAE3"/>
</g>
</svg>
