<svg width="20" height="20" viewBox="0 0 20 20" fill="none" xmlns="http://www.w3.org/2000/svg">
<g id="Frame">
<path id="Vector" d="M15.0258 13.8477L18.5947 17.4166L17.4162 18.5951L13.8473 15.0262C12.564 16.0528 10.9366 16.667 9.16663 16.667C5.02663 16.667 1.66663 13.307 1.66663 9.16699C1.66663 5.02699 5.02663 1.66699 9.16663 1.66699C13.3066 1.66699 16.6666 5.02699 16.6666 9.16699C16.6666 10.937 16.0525 12.5644 15.0258 13.8477ZM13.3539 13.2293C14.3729 12.1792 15 10.7467 15 9.16699C15 5.94408 12.3895 3.33366 9.16663 3.33366C5.94371 3.33366 3.33329 5.94408 3.33329 9.16699C3.33329 12.3899 5.94371 15.0003 9.16663 15.0003C10.7463 15.0003 12.1788 14.3732 13.229 13.3542L13.3539 13.2293Z" fill="#BFBAE3"/>
</g>
</svg>
