<svg width="14" height="14" viewBox="0 0 14 14" fill="none" xmlns="http://www.w3.org/2000/svg">
<g id="Frame">
<g id="Vector">
<path d="M3.59942 10.5003C3.83965 9.82063 4.48788 9.33366 5.24984 9.33366C6.01179 9.33366 6.66005 9.82063 6.90026 10.5003H12.8332V11.667H6.90026C6.66005 12.3467 6.01179 12.8337 5.24984 12.8337C4.48788 12.8337 3.83965 12.3467 3.59942 11.667H1.1665V10.5003H3.59942ZM7.09941 6.41699C7.33963 5.7373 7.98789 5.25033 8.74984 5.25033C9.51179 5.25033 10.16 5.7373 10.4003 6.41699H12.8332V7.58366H10.4003C10.16 8.26336 9.51179 8.75033 8.74984 8.75033C7.98789 8.75033 7.33963 8.26336 7.09941 7.58366H1.1665V6.41699H7.09941ZM3.59942 2.33366C3.83965 1.65396 4.48788 1.16699 5.24984 1.16699C6.01179 1.16699 6.66005 1.65396 6.90026 2.33366H12.8332V3.50033H6.90026C6.66005 4.18002 6.01179 4.66699 5.24984 4.66699C4.48788 4.66699 3.83965 4.18002 3.59942 3.50033H1.1665V2.33366H3.59942ZM5.24984 3.50033C5.572 3.50033 5.83317 3.23916 5.83317 2.91699C5.83317 2.59483 5.572 2.33366 5.24984 2.33366C4.92767 2.33366 4.6665 2.59483 4.6665 2.91699C4.6665 3.23916 4.92767 3.50033 5.24984 3.50033ZM8.74984 7.58366C9.07201 7.58366 9.33317 7.3225 9.33317 7.00033C9.33317 6.67815 9.07201 6.41699 8.74984 6.41699C8.42766 6.41699 8.1665 6.67815 8.1665 7.00033C8.1665 7.3225 8.42766 7.58366 8.74984 7.58366ZM5.24984 11.667C5.572 11.667 5.83317 11.4058 5.83317 11.0837C5.83317 10.7615 5.572 10.5003 5.24984 10.5003C4.92767 10.5003 4.6665 10.7615 4.6665 11.0837C4.6665 11.4058 4.92767 11.667 5.24984 11.667Z" fill="#2C2669"/>
<path d="M3.59942 10.5003C3.83965 9.82063 4.48788 9.33366 5.24984 9.33366C6.01179 9.33366 6.66005 9.82063 6.90026 10.5003H12.8332V11.667H6.90026C6.66005 12.3467 6.01179 12.8337 5.24984 12.8337C4.48788 12.8337 3.83965 12.3467 3.59942 11.667H1.1665V10.5003H3.59942ZM7.09941 6.41699C7.33963 5.7373 7.98789 5.25033 8.74984 5.25033C9.51179 5.25033 10.16 5.7373 10.4003 6.41699H12.8332V7.58366H10.4003C10.16 8.26336 9.51179 8.75033 8.74984 8.75033C7.98789 8.75033 7.33963 8.26336 7.09941 7.58366H1.1665V6.41699H7.09941ZM3.59942 2.33366C3.83965 1.65396 4.48788 1.16699 5.24984 1.16699C6.01179 1.16699 6.66005 1.65396 6.90026 2.33366H12.8332V3.50033H6.90026C6.66005 4.18002 6.01179 4.66699 5.24984 4.66699C4.48788 4.66699 3.83965 4.18002 3.59942 3.50033H1.1665V2.33366H3.59942ZM5.24984 3.50033C5.572 3.50033 5.83317 3.23916 5.83317 2.91699C5.83317 2.59483 5.572 2.33366 5.24984 2.33366C4.92767 2.33366 4.6665 2.59483 4.6665 2.91699C4.6665 3.23916 4.92767 3.50033 5.24984 3.50033ZM8.74984 7.58366C9.07201 7.58366 9.33317 7.3225 9.33317 7.00033C9.33317 6.67815 9.07201 6.41699 8.74984 6.41699C8.42766 6.41699 8.1665 6.67815 8.1665 7.00033C8.1665 7.3225 8.42766 7.58366 8.74984 7.58366ZM5.24984 11.667C5.572 11.667 5.83317 11.4058 5.83317 11.0837C5.83317 10.7615 5.572 10.5003 5.24984 10.5003C4.92767 10.5003 4.6665 10.7615 4.6665 11.0837C4.6665 11.4058 4.92767 11.667 5.24984 11.667Z" fill="black" fill-opacity="0.2"/>
</g>
</g>
</svg>
