<svg width="18" height="16" viewBox="0 0 18 16" fill="none" xmlns="http://www.w3.org/2000/svg">
<g id="Union (Stroke)">
<path d="M2.30465 14.4035L2.44648 14.4523L2.30465 14.4035L2.30081 14.4146C2.27108 14.5007 2.2407 14.5851 2.20981 14.6677C2.16119 14.7976 2.11134 14.9228 2.06085 15.0421C1.94028 15.3269 2.1702 15.6633 2.49595 15.61C2.63781 15.5867 2.77609 15.5627 2.91084 15.538C3.00691 15.5204 3.10119 15.5025 3.19368 15.4843L3.21406 15.4802C4.9997 15.1263 6.11794 14.6612 6.66933 14.3876C7.408 14.5806 8.19037 14.6842 9 14.6842C13.4817 14.6842 17.15 11.5012 17.15 7.53418C17.15 3.56716 13.4817 0.38418 9 0.38418C4.51832 0.38418 0.85 3.56716 0.85 7.53418C0.85 9.31476 1.59163 10.9408 2.81348 12.1895C2.73584 12.9265 2.54197 13.714 2.30465 14.4035ZM4.11455 12.2438C4.14721 11.9027 4.02606 11.5649 3.7841 11.3222C2.74848 10.2837 2.15 8.9584 2.15 7.53418C2.15 4.44195 5.06871 1.68418 9 1.68418C12.9313 1.68418 15.85 4.44195 15.85 7.53418C15.85 10.6264 12.9313 13.3842 9 13.3842C8.28389 13.3842 7.59585 13.2903 6.95067 13.1173C6.67696 13.0439 6.38579 13.0742 6.13301 13.2023C5.77951 13.3814 5.01699 13.7183 3.78047 14.0234C3.93715 13.4451 4.05797 12.8348 4.11455 12.2438Z" fill="#2C2669"/>
<path d="M2.30465 14.4035L2.44648 14.4523L2.30465 14.4035L2.30081 14.4146C2.27108 14.5007 2.2407 14.5851 2.20981 14.6677C2.16119 14.7976 2.11134 14.9228 2.06085 15.0421C1.94028 15.3269 2.1702 15.6633 2.49595 15.61C2.63781 15.5867 2.77609 15.5627 2.91084 15.538C3.00691 15.5204 3.10119 15.5025 3.19368 15.4843L3.21406 15.4802C4.9997 15.1263 6.11794 14.6612 6.66933 14.3876C7.408 14.5806 8.19037 14.6842 9 14.6842C13.4817 14.6842 17.15 11.5012 17.15 7.53418C17.15 3.56716 13.4817 0.38418 9 0.38418C4.51832 0.38418 0.85 3.56716 0.85 7.53418C0.85 9.31476 1.59163 10.9408 2.81348 12.1895C2.73584 12.9265 2.54197 13.714 2.30465 14.4035ZM4.11455 12.2438C4.14721 11.9027 4.02606 11.5649 3.7841 11.3222C2.74848 10.2837 2.15 8.9584 2.15 7.53418C2.15 4.44195 5.06871 1.68418 9 1.68418C12.9313 1.68418 15.85 4.44195 15.85 7.53418C15.85 10.6264 12.9313 13.3842 9 13.3842C8.28389 13.3842 7.59585 13.2903 6.95067 13.1173C6.67696 13.0439 6.38579 13.0742 6.13301 13.2023C5.77951 13.3814 5.01699 13.7183 3.78047 14.0234C3.93715 13.4451 4.05797 12.8348 4.11455 12.2438Z" fill="black" fill-opacity="0.2"/>
<path d="M2.30465 14.4035L2.44648 14.4523L2.30465 14.4035L2.30081 14.4146C2.27108 14.5007 2.2407 14.5851 2.20981 14.6677C2.16119 14.7976 2.11134 14.9228 2.06085 15.0421C1.94028 15.3269 2.1702 15.6633 2.49595 15.61C2.63781 15.5867 2.77609 15.5627 2.91084 15.538C3.00691 15.5204 3.10119 15.5025 3.19368 15.4843L3.21406 15.4802C4.9997 15.1263 6.11794 14.6612 6.66933 14.3876C7.408 14.5806 8.19037 14.6842 9 14.6842C13.4817 14.6842 17.15 11.5012 17.15 7.53418C17.15 3.56716 13.4817 0.38418 9 0.38418C4.51832 0.38418 0.85 3.56716 0.85 7.53418C0.85 9.31476 1.59163 10.9408 2.81348 12.1895C2.73584 12.9265 2.54197 13.714 2.30465 14.4035ZM4.11455 12.2438C4.14721 11.9027 4.02606 11.5649 3.7841 11.3222C2.74848 10.2837 2.15 8.9584 2.15 7.53418C2.15 4.44195 5.06871 1.68418 9 1.68418C12.9313 1.68418 15.85 4.44195 15.85 7.53418C15.85 10.6264 12.9313 13.3842 9 13.3842C8.28389 13.3842 7.59585 13.2903 6.95067 13.1173C6.67696 13.0439 6.38579 13.0742 6.13301 13.2023C5.77951 13.3814 5.01699 13.7183 3.78047 14.0234C3.93715 13.4451 4.05797 12.8348 4.11455 12.2438Z" stroke="#2C2669" stroke-width="0.3" stroke-linecap="round" stroke-linejoin="round"/>
<path d="M2.30465 14.4035L2.44648 14.4523L2.30465 14.4035L2.30081 14.4146C2.27108 14.5007 2.2407 14.5851 2.20981 14.6677C2.16119 14.7976 2.11134 14.9228 2.06085 15.0421C1.94028 15.3269 2.1702 15.6633 2.49595 15.61C2.63781 15.5867 2.77609 15.5627 2.91084 15.538C3.00691 15.5204 3.10119 15.5025 3.19368 15.4843L3.21406 15.4802C4.9997 15.1263 6.11794 14.6612 6.66933 14.3876C7.408 14.5806 8.19037 14.6842 9 14.6842C13.4817 14.6842 17.15 11.5012 17.15 7.53418C17.15 3.56716 13.4817 0.38418 9 0.38418C4.51832 0.38418 0.85 3.56716 0.85 7.53418C0.85 9.31476 1.59163 10.9408 2.81348 12.1895C2.73584 12.9265 2.54197 13.714 2.30465 14.4035ZM4.11455 12.2438C4.14721 11.9027 4.02606 11.5649 3.7841 11.3222C2.74848 10.2837 2.15 8.9584 2.15 7.53418C2.15 4.44195 5.06871 1.68418 9 1.68418C12.9313 1.68418 15.85 4.44195 15.85 7.53418C15.85 10.6264 12.9313 13.3842 9 13.3842C8.28389 13.3842 7.59585 13.2903 6.95067 13.1173C6.67696 13.0439 6.38579 13.0742 6.13301 13.2023C5.77951 13.3814 5.01699 13.7183 3.78047 14.0234C3.93715 13.4451 4.05797 12.8348 4.11455 12.2438Z" stroke="black" stroke-opacity="0.2" stroke-width="0.3" stroke-linecap="round" stroke-linejoin="round"/>
</g>
</svg>
