<svg width="20" height="20" viewBox="0 0 20 20" fill="none" xmlns="http://www.w3.org/2000/svg">
<g id="System" clip-path="url(#clip0_47_1509)">
<g id="Vector (Stroke)">
<path fill-rule="evenodd" clip-rule="evenodd" d="M7.18341 3.0163C7.93043 2.26928 8.94361 1.84961 10.0001 1.84961C11.0565 1.84961 12.0697 2.26928 12.8167 3.0163C13.5637 3.76332 13.9834 4.7765 13.9834 5.83294C13.9834 6.88939 13.5637 7.90257 12.8167 8.64958C12.0697 9.3966 11.0565 9.81628 10.0001 9.81628C8.94361 9.81628 7.93043 9.3966 7.18341 8.64958C6.43639 7.90257 6.01672 6.88939 6.01672 5.83294C6.01672 4.7765 6.43639 3.76332 7.18341 3.0163ZM10.0001 3.14961C9.28839 3.14961 8.60588 3.43232 8.10265 3.93554C7.59943 4.43876 7.31672 5.12128 7.31672 5.83294C7.31672 6.54461 7.59943 7.22712 8.10265 7.73035C8.60588 8.23357 9.28839 8.51628 10.0001 8.51628C10.7117 8.51628 11.3942 8.23357 11.8975 7.73035C12.4007 7.22712 12.6834 6.54461 12.6834 5.83294C12.6834 5.12128 12.4007 4.43876 11.8975 3.93554C11.3942 3.43232 10.7117 3.14961 10.0001 3.14961Z" fill="#2C2669"/>
<path fill-rule="evenodd" clip-rule="evenodd" d="M7.18341 3.0163C7.93043 2.26928 8.94361 1.84961 10.0001 1.84961C11.0565 1.84961 12.0697 2.26928 12.8167 3.0163C13.5637 3.76332 13.9834 4.7765 13.9834 5.83294C13.9834 6.88939 13.5637 7.90257 12.8167 8.64958C12.0697 9.3966 11.0565 9.81628 10.0001 9.81628C8.94361 9.81628 7.93043 9.3966 7.18341 8.64958C6.43639 7.90257 6.01672 6.88939 6.01672 5.83294C6.01672 4.7765 6.43639 3.76332 7.18341 3.0163ZM10.0001 3.14961C9.28839 3.14961 8.60588 3.43232 8.10265 3.93554C7.59943 4.43876 7.31672 5.12128 7.31672 5.83294C7.31672 6.54461 7.59943 7.22712 8.10265 7.73035C8.60588 8.23357 9.28839 8.51628 10.0001 8.51628C10.7117 8.51628 11.3942 8.23357 11.8975 7.73035C12.4007 7.22712 12.6834 6.54461 12.6834 5.83294C12.6834 5.12128 12.4007 4.43876 11.8975 3.93554C11.3942 3.43232 10.7117 3.14961 10.0001 3.14961Z" fill="black" fill-opacity="0.2"/>
</g>
<g id="Vector (Stroke)_2">
<path fill-rule="evenodd" clip-rule="evenodd" d="M8.33331 13.1496C7.62164 13.1496 6.93913 13.4323 6.43591 13.9355C5.93268 14.4388 5.64998 15.1213 5.64998 15.8329V17.4996C5.64998 17.8586 5.35896 18.1496 4.99998 18.1496C4.64099 18.1496 4.34998 17.8586 4.34998 17.4996V15.8329C4.34998 14.7765 4.76965 13.7633 5.51667 13.0163C6.26369 12.2693 7.27686 11.8496 8.33331 11.8496H8.74998C9.10896 11.8496 9.39998 12.1406 9.39998 12.4996C9.39998 12.8586 9.10896 13.1496 8.74998 13.1496H8.33331Z" fill="#2C2669"/>
<path fill-rule="evenodd" clip-rule="evenodd" d="M8.33331 13.1496C7.62164 13.1496 6.93913 13.4323 6.43591 13.9355C5.93268 14.4388 5.64998 15.1213 5.64998 15.8329V17.4996C5.64998 17.8586 5.35896 18.1496 4.99998 18.1496C4.64099 18.1496 4.34998 17.8586 4.34998 17.4996V15.8329C4.34998 14.7765 4.76965 13.7633 5.51667 13.0163C6.26369 12.2693 7.27686 11.8496 8.33331 11.8496H8.74998C9.10896 11.8496 9.39998 12.1406 9.39998 12.4996C9.39998 12.8586 9.10896 13.1496 8.74998 13.1496H8.33331Z" fill="black" fill-opacity="0.2"/>
</g>
<g id="Vector">
<path d="M14.8319 17.3472L13.0219 18.2956C12.9682 18.3235 12.9078 18.336 12.8474 18.3316C12.787 18.3272 12.729 18.3061 12.6799 18.2707C12.6308 18.2352 12.5926 18.1868 12.5694 18.1309C12.5462 18.075 12.539 18.0137 12.5486 17.9539L12.8944 15.9447L11.4303 14.5222C11.3866 14.48 11.3556 14.4263 11.341 14.3673C11.3263 14.3083 11.3286 14.2464 11.3474 14.1886C11.3663 14.1308 11.401 14.0795 11.4476 14.0405C11.4942 14.0015 11.5509 13.9764 11.6111 13.9681L13.6344 13.6747L14.5394 11.8472C14.5665 11.7928 14.6082 11.747 14.6599 11.715C14.7116 11.683 14.7712 11.666 14.8319 11.666C14.8927 11.666 14.9523 11.683 15.004 11.715C15.0557 11.747 15.0974 11.7928 15.1244 11.8472L16.0294 13.6747L18.0528 13.9681C18.1128 13.9767 18.1692 14.002 18.2157 14.041C18.2621 14.08 18.2967 14.1313 18.3155 14.1889C18.3343 14.2466 18.3366 14.3084 18.3221 14.3673C18.3077 14.4262 18.277 14.4799 18.2336 14.5222L16.7694 15.9447L17.1144 17.9531C17.1248 18.013 17.1182 18.0745 17.0953 18.1309C17.0724 18.1872 17.0341 18.2359 16.9849 18.2716C16.9357 18.3072 16.8775 18.3284 16.8169 18.3326C16.7562 18.3369 16.6956 18.324 16.6419 18.2956L14.8319 17.3472Z" stroke="#2C2669" stroke-width="1.3" stroke-linecap="round" stroke-linejoin="round"/>
<path d="M14.8319 17.3472L13.0219 18.2956C12.9682 18.3235 12.9078 18.336 12.8474 18.3316C12.787 18.3272 12.729 18.3061 12.6799 18.2707C12.6308 18.2352 12.5926 18.1868 12.5694 18.1309C12.5462 18.075 12.539 18.0137 12.5486 17.9539L12.8944 15.9447L11.4303 14.5222C11.3866 14.48 11.3556 14.4263 11.341 14.3673C11.3263 14.3083 11.3286 14.2464 11.3474 14.1886C11.3663 14.1308 11.401 14.0795 11.4476 14.0405C11.4942 14.0015 11.5509 13.9764 11.6111 13.9681L13.6344 13.6747L14.5394 11.8472C14.5665 11.7928 14.6082 11.747 14.6599 11.715C14.7116 11.683 14.7712 11.666 14.8319 11.666C14.8927 11.666 14.9523 11.683 15.004 11.715C15.0557 11.747 15.0974 11.7928 15.1244 11.8472L16.0294 13.6747L18.0528 13.9681C18.1128 13.9767 18.1692 14.002 18.2157 14.041C18.2621 14.08 18.2967 14.1313 18.3155 14.1889C18.3343 14.2466 18.3366 14.3084 18.3221 14.3673C18.3077 14.4262 18.277 14.4799 18.2336 14.5222L16.7694 15.9447L17.1144 17.9531C17.1248 18.013 17.1182 18.0745 17.0953 18.1309C17.0724 18.1872 17.0341 18.2359 16.9849 18.2716C16.9357 18.3072 16.8775 18.3284 16.8169 18.3326C16.7562 18.3369 16.6956 18.324 16.6419 18.2956L14.8319 17.3472Z" stroke="black" stroke-opacity="0.2" stroke-width="1.3" stroke-linecap="round" stroke-linejoin="round"/>
</g>
</g>
<defs>
<clipPath id="clip0_47_1509">
<rect width="20" height="20" fill="white"/>
</clipPath>
</defs>
</svg>
