<svg width="20" height="20" viewBox="0 0 20 20" fill="none" xmlns="http://www.w3.org/2000/svg">
<g id="System" clip-path="url(#clip0_47_1500)">
<g id="Vector (Stroke)">
<path fill-rule="evenodd" clip-rule="evenodd" d="M4.68341 3.0163C5.43043 2.26928 6.44361 1.84961 7.50006 1.84961C8.5565 1.84961 9.56968 2.26928 10.3167 3.0163C11.0637 3.76332 11.4834 4.7765 11.4834 5.83294C11.4834 6.88939 11.0637 7.90257 10.3167 8.64958C9.56968 9.3966 8.5565 9.81628 7.50006 9.81628C6.44361 9.81628 5.43043 9.3966 4.68341 8.64958C3.93639 7.90257 3.51672 6.88939 3.51672 5.83294C3.51672 4.7765 3.93639 3.76332 4.68341 3.0163ZM7.50006 3.14961C6.78839 3.14961 6.10588 3.43232 5.60265 3.93554C5.09943 4.43876 4.81672 5.12128 4.81672 5.83294C4.81672 6.54461 5.09943 7.22712 5.60265 7.73035C6.10588 8.23357 6.78839 8.51628 7.50006 8.51628C8.21172 8.51628 8.89424 8.23357 9.39746 7.73035C9.90068 7.22712 10.1834 6.54461 10.1834 5.83294C10.1834 5.12128 9.90068 4.43876 9.39746 3.93554C8.89424 3.43232 8.21172 3.14961 7.50006 3.14961Z" fill="#2C2669"/>
<path fill-rule="evenodd" clip-rule="evenodd" d="M4.68341 3.0163C5.43043 2.26928 6.44361 1.84961 7.50006 1.84961C8.5565 1.84961 9.56968 2.26928 10.3167 3.0163C11.0637 3.76332 11.4834 4.7765 11.4834 5.83294C11.4834 6.88939 11.0637 7.90257 10.3167 8.64958C9.56968 9.3966 8.5565 9.81628 7.50006 9.81628C6.44361 9.81628 5.43043 9.3966 4.68341 8.64958C3.93639 7.90257 3.51672 6.88939 3.51672 5.83294C3.51672 4.7765 3.93639 3.76332 4.68341 3.0163ZM7.50006 3.14961C6.78839 3.14961 6.10588 3.43232 5.60265 3.93554C5.09943 4.43876 4.81672 5.12128 4.81672 5.83294C4.81672 6.54461 5.09943 7.22712 5.60265 7.73035C6.10588 8.23357 6.78839 8.51628 7.50006 8.51628C8.21172 8.51628 8.89424 8.23357 9.39746 7.73035C9.90068 7.22712 10.1834 6.54461 10.1834 5.83294C10.1834 5.12128 9.90068 4.43876 9.39746 3.93554C8.89424 3.43232 8.21172 3.14961 7.50006 3.14961Z" fill="black" fill-opacity="0.2"/>
</g>
<g id="Vector (Stroke)_2">
<path fill-rule="evenodd" clip-rule="evenodd" d="M5.83331 13.1496C5.12164 13.1496 4.43913 13.4323 3.93591 13.9355C3.43268 14.4388 3.14998 15.1213 3.14998 15.8329V17.4996C3.14998 17.8586 2.85896 18.1496 2.49998 18.1496C2.14099 18.1496 1.84998 17.8586 1.84998 17.4996V15.8329C1.84998 14.7765 2.26965 13.7633 3.01667 13.0163C3.76369 12.2693 4.77686 11.8496 5.83331 11.8496H9.16664C10.1222 11.8496 10.9994 12.1867 11.6859 12.7468C11.964 12.9738 12.0055 13.3832 11.7786 13.6614C11.5517 13.9395 11.1422 13.981 10.864 13.7541C10.4005 13.3759 9.81113 13.1496 9.16664 13.1496H5.83331Z" fill="#2C2669"/>
<path fill-rule="evenodd" clip-rule="evenodd" d="M5.83331 13.1496C5.12164 13.1496 4.43913 13.4323 3.93591 13.9355C3.43268 14.4388 3.14998 15.1213 3.14998 15.8329V17.4996C3.14998 17.8586 2.85896 18.1496 2.49998 18.1496C2.14099 18.1496 1.84998 17.8586 1.84998 17.4996V15.8329C1.84998 14.7765 2.26965 13.7633 3.01667 13.0163C3.76369 12.2693 4.77686 11.8496 5.83331 11.8496H9.16664C10.1222 11.8496 10.9994 12.1867 11.6859 12.7468C11.964 12.9738 12.0055 13.3832 11.7786 13.6614C11.5517 13.9395 11.1422 13.981 10.864 13.7541C10.4005 13.3759 9.81113 13.1496 9.16664 13.1496H5.83331Z" fill="black" fill-opacity="0.2"/>
</g>
<g id="Vector (Stroke)_3">
<path fill-rule="evenodd" clip-rule="evenodd" d="M12.7037 2.44792C12.7927 2.10015 13.1468 1.89041 13.4946 1.97945C14.3514 2.19884 15.1109 2.69715 15.6532 3.39584C16.1955 4.09452 16.4899 4.95384 16.4899 5.83831C16.4899 6.72278 16.1955 7.58209 15.6532 8.28078C15.1109 8.97946 14.3514 9.47778 13.4946 9.69716C13.1468 9.7862 12.7927 9.57647 12.7037 9.2287C12.6147 8.88093 12.8244 8.52683 13.1722 8.43779C13.7494 8.29 14.2609 7.95432 14.6263 7.48365C14.9916 7.01299 15.1899 6.43412 15.1899 5.83831C15.1899 5.24249 14.9916 4.66362 14.6263 4.19296C14.2609 3.7223 13.7494 3.38661 13.1722 3.23883C12.8244 3.14979 12.6147 2.79568 12.7037 2.44792Z" fill="#2C2669"/>
<path fill-rule="evenodd" clip-rule="evenodd" d="M12.7037 2.44792C12.7927 2.10015 13.1468 1.89041 13.4946 1.97945C14.3514 2.19884 15.1109 2.69715 15.6532 3.39584C16.1955 4.09452 16.4899 4.95384 16.4899 5.83831C16.4899 6.72278 16.1955 7.58209 15.6532 8.28078C15.1109 8.97946 14.3514 9.47778 13.4946 9.69716C13.1468 9.7862 12.7927 9.57647 12.7037 9.2287C12.6147 8.88093 12.8244 8.52683 13.1722 8.43779C13.7494 8.29 14.2609 7.95432 14.6263 7.48365C14.9916 7.01299 15.1899 6.43412 15.1899 5.83831C15.1899 5.24249 14.9916 4.66362 14.6263 4.19296C14.2609 3.7223 13.7494 3.38661 13.1722 3.23883C12.8244 3.14979 12.6147 2.79568 12.7037 2.44792Z" fill="black" fill-opacity="0.2"/>
</g>
<g id="Vector (Stroke)_4">
<path fill-rule="evenodd" clip-rule="evenodd" d="M12.6833 15.8336C12.6833 15.4746 12.9744 15.1836 13.3333 15.1836H18.3333C18.6923 15.1836 18.9833 15.4746 18.9833 15.8336C18.9833 16.1926 18.6923 16.4836 18.3333 16.4836H13.3333C12.9744 16.4836 12.6833 16.1926 12.6833 15.8336Z" fill="#2C2669"/>
<path fill-rule="evenodd" clip-rule="evenodd" d="M12.6833 15.8336C12.6833 15.4746 12.9744 15.1836 13.3333 15.1836H18.3333C18.6923 15.1836 18.9833 15.4746 18.9833 15.8336C18.9833 16.1926 18.6923 16.4836 18.3333 16.4836H13.3333C12.9744 16.4836 12.6833 16.1926 12.6833 15.8336Z" fill="black" fill-opacity="0.2"/>
</g>
<g id="Vector (Stroke)_5">
<path fill-rule="evenodd" clip-rule="evenodd" d="M15.8333 12.6836C16.1923 12.6836 16.4833 12.9746 16.4833 13.3336V18.3336C16.4833 18.6926 16.1923 18.9836 15.8333 18.9836C15.4744 18.9836 15.1833 18.6926 15.1833 18.3336V13.3336C15.1833 12.9746 15.4744 12.6836 15.8333 12.6836Z" fill="#2C2669"/>
<path fill-rule="evenodd" clip-rule="evenodd" d="M15.8333 12.6836C16.1923 12.6836 16.4833 12.9746 16.4833 13.3336V18.3336C16.4833 18.6926 16.1923 18.9836 15.8333 18.9836C15.4744 18.9836 15.1833 18.6926 15.1833 18.3336V13.3336C15.1833 12.9746 15.4744 12.6836 15.8333 12.6836Z" fill="black" fill-opacity="0.2"/>
</g>
</g>
<defs>
<clipPath id="clip0_47_1500">
<rect width="20" height="20" fill="white"/>
</clipPath>
</defs>
</svg>
